<svg width="33" height="6" viewBox="0 0 33 6" fill="none" xmlns="http://www.w3.org/2000/svg">
<path d="M11.8662 4.67187C11.8662 5.31656 12.2423 5.58518 12.7258 5.58518C13.1019 5.58518 13.4242 5.47773 13.5317 5.42401L13.6928 4.5107C13.6391 4.5107 13.5317 4.56442 13.4242 4.56442C13.0481 4.56442 12.9944 4.34953 13.0481 4.24208L13.3705 2.36174H13.9615L14.1226 1.34098H13.5854L13.6928 0.696289" fill="#DCE5E5"/>
<path d="M14.4443 3.70466C14.4443 5.20893 14.9279 5.585 15.7874 5.585C16.5933 5.585 16.9156 5.42383 16.9156 5.42383L17.1305 4.40307C17.1305 4.40307 16.5396 4.67169 16.0023 4.67169C14.8204 4.67169 15.0353 3.8121 15.0353 3.8121H17.238C17.238 3.8121 17.3992 3.11369 17.3992 2.84507C17.3992 2.14666 17.0231 1.28707 15.8412 1.28707C14.713 1.17962 14.4443 2.36155 14.4443 3.70466ZM15.7874 2.14666C16.3784 2.14666 16.4859 2.84507 16.4859 2.8988H15.089C15.089 2.84507 15.1965 2.14666 15.7874 2.14666Z" fill="#DCE5E5"/>
<path d="M22.6158 5.42413L22.8307 4.2422C22.8307 4.2422 22.2935 4.51082 21.9174 4.51082C21.1653 4.51082 20.8429 3.91985 20.8429 3.27516C20.8429 1.98579 21.4876 1.28737 22.2398 1.28737C22.777 1.28737 23.2068 1.60972 23.2068 1.60972L23.368 0.481511C23.368 0.481511 22.7233 0.212891 22.1323 0.212891C20.8967 0.212891 20.1982 1.28737 20.1982 3.32889C20.1982 4.67199 20.3057 5.5853 21.5951 5.5853C22.0249 5.5853 22.6158 5.42413 22.6158 5.42413Z" fill="#DCE5E5"/>
<path d="M6.17202 2.36159C6.17202 2.36159 6.65554 2.1467 7.35395 2.1467C7.73002 2.1467 8.05236 2.20042 8.05236 2.52276C8.05236 2.73766 7.99864 2.79138 7.99864 2.79138C7.99864 2.79138 7.67629 2.79138 7.51512 2.79138C6.60181 2.79138 5.58105 3.16745 5.58105 4.40311C5.58105 5.37014 6.22574 5.58504 6.60181 5.58504C7.35395 5.58504 7.67629 5.10152 7.73002 5.10152L7.67629 5.53131H8.64333L9.07312 2.57649C9.07312 1.34083 7.99864 1.28711 7.56885 1.28711L6.17202 2.36159ZM8.37471 3.59725C8.37471 3.75842 7.73002 4.618 7.08533 4.618C6.76298 4.618 6.65554 4.34938 6.65554 4.18821C6.65554 3.91959 6.81671 3.54352 7.62257 3.54352C7.78374 3.59724 8.37471 3.59725 8.37471 3.59725Z" fill="#DCE5E5"/>
<path d="M8.91309 5.4239C8.91309 5.4239 9.23543 5.53135 10.1487 5.53135C10.4174 5.53135 11.7605 5.58508 11.7605 4.13453C11.7605 2.79142 10.4711 3.06004 10.4711 2.5228C10.4711 2.25418 10.686 2.14674 11.062 2.14674C11.2232 2.14674 11.8142 2.20046 11.8142 2.20046L11.9754 1.23343C11.9754 1.23343 11.5993 1.12598 10.9546 1.12598C10.1487 1.12598 9.88012 1.44832 9.88012 2.5228C9.88012 3.75846 10.686 3.65101 10.686 4.13453C10.686 4.45687 10.3099 4.51059 10.0413 4.51059" fill="#DCE5E5"/>
<path d="M31.3165 1.77085C31.3165 1.77085 30.8867 1.23361 30.2957 1.23361C29.3287 1.23361 29.0063 2.41554 29.0063 3.81237C29.0063 4.67195 28.8989 5.58526 29.8122 5.58526C30.4569 5.58526 30.833 5.15547 30.833 5.15547L30.7792 5.53154H31.8537L32.6596 0.374023L31.3165 1.77085ZM31.2628 3.16768C31.2628 3.75864 30.7792 4.51078 30.1883 4.51078C29.8122 4.51078 29.5973 4.18844 29.5973 3.65119C29.5973 2.79161 29.9734 2.25437 30.4569 2.25437C30.833 2.25437 31.2628 2.52299 31.2628 3.16768Z" fill="#DCE5E5"/>
<path d="M1.76978 5.47783L2.41447 1.60969L2.52192 5.47783H3.27406L4.67088 1.60969L4.07992 5.47783H5.20812L6.06771 0.320312H4.72461L3.22033 3.49004L3.16661 0.320312H2.57564L0.749023 5.47783H1.76978Z" fill="#DCE5E5"/>
<path d="M17.2949 5.47759H18.4231C18.7455 3.70469 18.7992 2.25414 19.5513 2.52276C19.6588 1.82435 19.82 1.55573 19.9274 1.28711C19.9274 1.28711 19.8737 1.28711 19.7125 1.28711C19.229 1.28711 18.8529 1.9318 18.8529 1.9318L18.9604 1.34083" fill="#DCE5E5"/>
<path d="M23.6374 2.36159C23.6374 2.36159 24.1209 2.1467 24.8193 2.1467C25.1953 2.1467 25.5177 2.20042 25.5177 2.52276C25.5177 2.73766 25.464 2.79138 25.464 2.79138C25.464 2.79138 25.1416 2.79138 24.9805 2.79138C24.0671 2.79138 23.0464 3.16745 23.0464 4.40311C23.0464 5.37014 23.6911 5.58504 24.0671 5.58504C24.8193 5.58504 25.1416 5.10152 25.1954 5.10152L25.1416 5.53131H26.1087L26.5385 2.57649C26.5385 1.34083 25.464 1.28711 25.0342 1.28711L23.6374 2.36159ZM25.84 3.59725C25.84 3.75842 25.1953 4.618 24.5507 4.618C24.2283 4.618 24.1209 4.34938 24.1209 4.18821C24.1209 3.91959 24.282 3.54352 25.0879 3.54352C25.3028 3.59724 25.84 3.59725 25.84 3.59725Z" fill="#DCE5E5"/>
<path d="M26.3232 5.47759H27.4514C27.7738 3.70469 27.8275 2.25414 28.5797 2.52276C28.6871 1.82435 28.8483 1.55573 28.9557 1.28711C28.9557 1.28711 28.902 1.28711 28.7408 1.28711C28.2573 1.28711 27.8812 1.9318 27.8812 1.9318L27.9887 1.34083" fill="#DCE5E5"/>
</svg>
